<svg xmlns="http://www.w3.org/2000/svg" viewBox="0 0 187 25" width="187" height="25">
	<style>
		tspan { white-space:pre }
		.shp0 { fill: #ffffff } 
	</style>
	<path id="2" class="shp0" d="M5.66 17.39L5.66 24.52L0.16 24.52L0.16 3L8.93 3C10.77 3 12.68 3.35 14.3 4.93C15.95 6.55 16.27 8.35 16.27 10.16C16.27 11.87 16.05 13.87 14.4 15.52C12.74 17.16 10.77 17.39 9.12 17.39L5.66 17.39ZM5.66 12.87L7.5 12.87C8.07 12.87 9.15 12.81 9.82 12.19C10.49 11.61 10.52 10.74 10.52 10.22C10.52 9.64 10.46 8.87 9.88 8.29C9.25 7.61 8.23 7.51 7.53 7.51L5.66 7.51L5.66 12.87ZM20.94 1.19C22.53 1.19 23.8 2.48 23.8 4.1C23.8 5.71 22.53 7 20.94 7C19.35 7 18.08 5.71 18.08 4.1C18.08 2.48 19.35 1.19 20.94 1.19ZM23.49 10.1L23.49 24.52L18.4 24.52L18.4 10.1L23.49 10.1ZM31.74 16.68L25.99 10.1L32.6 10.1L35.05 13.06L37.56 10.1L44.14 10.1L38.26 16.68L45.38 24.52L38.64 24.52L35.02 20.23L31.39 24.52L24.66 24.52L31.74 16.68ZM60.41 18.26L49.82 18.26C49.82 19.03 50.11 20.06 50.71 20.68C51.03 21 51.67 21.39 52.81 21.39C52.94 21.39 53.83 21.35 54.46 21C54.78 20.81 55.13 20.48 55.35 20.03L60.22 20.03C59.99 20.84 59.55 21.97 58.5 23C57.45 24.03 55.8 25 52.72 25C50.84 25 48.59 24.58 46.84 22.81C45.92 21.87 44.74 20.1 44.74 17.35C44.74 14.93 45.63 13 46.87 11.77C48.05 10.61 49.89 9.68 52.69 9.68C54.34 9.68 56.47 10.03 58.15 11.64C60.15 13.58 60.41 16.1 60.41 17.71L60.41 18.26ZM55.74 15.29C55.61 14.74 55.29 14.13 54.91 13.74C54.24 13.06 53.32 12.97 52.81 12.97C51.95 12.97 51.29 13.19 50.75 13.74C50.4 14.13 50.08 14.64 49.98 15.29L55.74 15.29ZM67.81 1L67.81 24.52L62.72 24.52L62.72 1L67.81 1ZM78.52 24.52L78.52 3L86.71 3C88.24 3 90.05 3.22 91.35 4.68C92.09 5.48 92.66 6.81 92.66 8.71C92.66 9.64 92.5 10.45 92.05 11.35C91.61 12.19 91.13 12.68 90.34 13.03C91.45 13.16 92.56 13.68 93.23 14.32C94.09 15.16 94.66 16.55 94.66 18.26C94.66 20.29 93.9 21.68 93.1 22.48C91.96 23.68 89.96 24.52 87.35 24.52L78.52 24.52ZM84.01 11.48L85.03 11.48C85.6 11.48 86.56 11.42 87.13 10.81C87.48 10.45 87.64 9.87 87.64 9.39C87.64 8.84 87.45 8.29 87.13 7.93C86.78 7.58 86.11 7.29 85.03 7.29L84.01 7.29L84.01 11.48ZM84.01 20.16L85.25 20.16C86.78 20.16 88.05 20 88.65 19.29C88.91 19 89.1 18.52 89.1 17.9C89.1 17.23 88.88 16.68 88.56 16.35C87.89 15.68 86.52 15.64 85.16 15.64L84.01 15.64L84.01 20.16ZM102.16 10.1L102.16 18.16C102.16 18.74 102.25 19.64 102.92 20.26C103.43 20.71 104.1 20.81 104.7 20.81C105.33 20.81 105.94 20.74 106.51 20.19C107.15 19.55 107.24 18.81 107.24 18.16L107.24 10.1L112.33 10.1L112.33 19.1C112.33 20.32 112.23 21.64 110.96 22.97C109.21 24.81 106.76 25 104.83 25C102.7 25 100.09 24.77 98.41 22.94C97.33 21.77 97.07 20.48 97.07 19.1L97.07 10.1L102.16 10.1ZM131.15 24.52L126.06 24.52L126.06 22.94C124.63 24.81 122.76 25 121.77 25C119.74 25 118.12 24.32 116.78 23C115.35 21.58 114.49 19.55 114.49 17.26C114.49 14.81 115.51 12.81 116.81 11.55C118.21 10.19 120.09 9.61 121.83 9.61C123.77 9.61 125.14 10.48 126.06 11.48L126.06 1L131.15 1L131.15 24.52ZM125.14 19.74C125.81 19.13 126.22 18.16 126.22 17.29C126.22 16.48 125.78 15.52 125.27 14.97C124.69 14.35 123.9 14 122.95 14C121.87 14 121.14 14.48 120.69 14.93C120.12 15.52 119.71 16.42 119.71 17.39C119.71 18.13 120.02 18.97 120.69 19.64C121.39 20.35 122.22 20.61 122.95 20.61C123.77 20.61 124.6 20.23 125.14 19.74ZM150.08 24.52L144.99 24.52L144.99 22.94C143.56 24.81 141.69 25 140.7 25C138.67 25 137.05 24.32 135.71 23C134.28 21.58 133.43 19.55 133.43 17.26C133.43 14.81 134.44 12.81 135.74 11.55C137.14 10.19 139.02 9.61 140.77 9.61C142.7 9.61 144.07 10.48 144.99 11.48L144.99 1L150.08 1L150.08 24.52ZM144.07 19.74C144.74 19.13 145.15 18.16 145.15 17.29C145.15 16.48 144.71 15.52 144.2 14.97C143.63 14.35 142.83 14 141.88 14C140.8 14 140.07 14.48 139.62 14.93C139.05 15.52 138.64 16.42 138.64 17.39C138.64 18.13 138.96 18.97 139.62 19.64C140.32 20.35 141.15 20.61 141.88 20.61C142.7 20.61 143.53 20.23 144.07 19.74ZM153.01 1L158.09 1L158.09 11.9C158.47 11.42 159.08 10.84 159.68 10.48C160.67 9.9 161.72 9.77 162.61 9.77C164.61 9.77 165.94 10.45 166.8 11.32C168.07 12.61 168.14 13.97 168.14 15.35L168.14 24.52L163.05 24.52L163.05 17.23C163.05 16.16 162.99 15.06 162.41 14.42C161.94 13.87 161.3 13.81 160.79 13.81C160.25 13.81 159.52 13.9 158.95 14.42C158.51 14.84 158.09 15.61 158.09 16.77L158.09 24.52L153.01 24.52L153.01 1ZM181.92 10.1L187 10.1L187 24.52L181.92 24.52L181.92 22.94C180.74 24.58 178.9 25 177.5 25C175.97 25 174.1 24.55 172.38 22.71C171.01 21.23 170.35 19.58 170.35 17.42C170.35 14.71 171.4 12.81 172.54 11.64C173.75 10.42 175.62 9.61 177.66 9.61C179.94 9.61 181.31 10.81 181.92 11.48L181.92 10.1ZM176.58 14.93C175.88 15.61 175.56 16.55 175.56 17.29C175.56 18.13 175.91 19.03 176.54 19.64C177.08 20.16 177.97 20.61 178.83 20.61C179.66 20.61 180.48 20.26 181.12 19.61C181.57 19.16 182.07 18.45 182.07 17.29C182.07 16.61 181.88 15.71 181.09 14.93C180.61 14.48 179.88 14 178.8 14C178.17 14 177.31 14.22 176.58 14.93Z" />
</svg>